<svg
   viewBox="0 0 32 32"
   version="1.1"
   id="svg4"
   sodipodi:docname="bars-solid.svg"
   width="32"
   height="32"
   inkscape:version="1.0.1 (3bc2e813f5, 2020-09-07)">
<path
     d="m 2,4.3333333 c 0,-1.2884375 0.895625,-2.3333333 2,-2.3333333 h 24 c 1.10625,0 2,1.0448958 2,2.3333333 0,1.290625 -0.89375,2.3333334 -2,2.3333334 h -24 c -1.104375,0 -2,-1.0427084 -2,-2.3333334 z m 0,11.6666667 c 0,-1.290625 0.895625,-2.333333 2,-2.333333 h 24 c 1.10625,0 2,1.042708 2,2.333333 0,1.290625 -0.89375,2.333333 -2,2.333333 h -24 c -1.104375,0 -2,-1.042708 -2,-2.333333 z m 26,14 h -24 c -1.104375,0 -2,-1.042708 -2,-2.333333 0,-1.290625 0.895625,-2.333334 2,-2.333334 h 24 c 1.10625,0 2,1.042709 2,2.333334 0,1.290625 -0.89375,2.333333 -2,2.333333 z"
     id="bars"
     style="stroke-width:0.0675077" />
</svg>
