<?xml version="1.0" encoding="UTF-8" standalone="no"?>
<svg
   xmlns:dc="http://purl.org/dc/elements/1.1/"
   xmlns:cc="http://creativecommons.org/ns#"
   xmlns:rdf="http://www.w3.org/1999/02/22-rdf-syntax-ns#"
   xmlns:svg="http://www.w3.org/2000/svg"
   xmlns="http://www.w3.org/2000/svg"
   xmlns:sodipodi="http://sodipodi.sourceforge.net/DTD/sodipodi-0.dtd"
   xmlns:inkscape="http://www.inkscape.org/namespaces/inkscape"
   viewBox="0 0 32 32"
   version="1.1"
   id="svg4"
   sodipodi:docname="circle-arrow-right-solid.svg"
   inkscape:version="1.0.1 (3bc2e813f5, 2020-09-07)"
   width="32"
   height="32">
  <metadata
     id="metadata10">
    <rdf:RDF>
      <cc:Work
         rdf:about="">
        <dc:format>image/svg+xml</dc:format>
        <dc:type
           rdf:resource="http://purl.org/dc/dcmitype/StillImage" />
        <dc:title></dc:title>
      </cc:Work>
    </rdf:RDF>
  </metadata>
  <defs
     id="defs8" />
  <sodipodi:namedview
     pagecolor="#ffffff"
     bordercolor="#666666"
     borderopacity="1"
     objecttolerance="10"
     gridtolerance="10"
     guidetolerance="10"
     inkscape:pageopacity="0"
     inkscape:pageshadow="2"
     inkscape:window-width="1920"
     inkscape:window-height="1009"
     id="namedview6"
     showgrid="false"
     inkscape:zoom="0.84434802"
     inkscape:cx="109.99002"
     inkscape:cy="179.67089"
     inkscape:window-x="-8"
     inkscape:window-y="-8"
     inkscape:window-maximized="1"
     inkscape:current-layer="svg4"
     inkscape:document-rotation="0" />
  <!--! Font Awesome Pro 6.1.1 by @fontawesome - https://fontawesome.com License - https://fontawesome.com/license (Commercial License) Copyright 2022 Fonticons, Inc. -->
  <g
     id="g2564"
     transform="matrix(0.0546875,0,0,0.0546875,2,2)">
    <circle
       style="fill:#1e2557;fill-opacity:1;stroke-width:0.201488;stroke-linecap:round"
       id="path830"
       cx="256"
       cy="256"
       r="256" />
    <path
       d="m 256,6 c -138.08593,0 -250,111.91407 -250,250 0,138.08593 111.91407,250 250,250 138.08593,0 250,-111.91407 250,-250 0,-138.08593 -111.91407,-250 -250,-250 z m 147.07031,272.07031 -100.6836,100.6836 c -12.20702,12.20702 -31.98241,12.20702 -44.18945,0 -12.20702,-12.20704 -12.20702,-31.98242 0,-44.18946 l 47.41212,-47.31445 h -174.60937 c -17.28516,0 -31.25,-13.96484 -31.25,-31.25 0,-17.28516 13.9746,-31.25 31.25,-31.25 h 174.60937 l -48.22266,-48.22266 c -12.20704,-12.20703 -12.20704,-31.98242 0,-44.18945 12.20703,-12.20702 31.98242,-12.20702 44.18944,0 l 100.68361,100.68359 c 8.62304,8.62306 9.99022,18.19337 9.99022,22.97852 0,4.78515 -1.36718,14.35546 -9.17968,22.07031 z"
       id="path2"
       style="fill:white;fill-opacity:1;stroke-width:0.976562" />
  </g>
</svg>
