<?xml version="1.0" encoding="UTF-8" standalone="no"?>
<svg
   xmlns:dc="http://purl.org/dc/elements/1.1/"
   xmlns:cc="http://creativecommons.org/ns#"
   xmlns:rdf="http://www.w3.org/1999/02/22-rdf-syntax-ns#"
   xmlns:svg="http://www.w3.org/2000/svg"
   xmlns="http://www.w3.org/2000/svg"
   xmlns:sodipodi="http://sodipodi.sourceforge.net/DTD/sodipodi-0.dtd"
   xmlns:inkscape="http://www.inkscape.org/namespaces/inkscape"
   viewBox="0 0 64 64"
   version="1.1"
   id="svg4"
   sodipodi:docname="download-solid.svg"
   width="64"
   height="64"
   inkscape:version="1.0.1 (3bc2e813f5, 2020-09-07)">
  <metadata
     id="metadata10">
    <rdf:RDF>
      <cc:Work
         rdf:about="">
        <dc:format>image/svg+xml</dc:format>
        <dc:type
           rdf:resource="http://purl.org/dc/dcmitype/StillImage" />
        <dc:title />
      </cc:Work>
    </rdf:RDF>
  </metadata>
  <defs
     id="defs8" />
  <sodipodi:namedview
     pagecolor="#ffffff"
     bordercolor="#666666"
     borderopacity="1"
     objecttolerance="10"
     gridtolerance="10"
     guidetolerance="10"
     inkscape:pageopacity="0"
     inkscape:pageshadow="2"
     inkscape:window-width="1920"
     inkscape:window-height="1009"
     id="namedview6"
     showgrid="false"
     inkscape:zoom="0.7998529"
     inkscape:cx="109.59692"
     inkscape:cy="129.2582"
     inkscape:window-x="-8"
     inkscape:window-y="-8"
     inkscape:window-maximized="1"
     inkscape:current-layer="svg4"
     inkscape:document-rotation="0" />
  <!--! Font Awesome Pro 6.1.1 by @fontawesome - https://fontawesome.com License - https://fontawesome.com/license (Commercial License) Copyright 2022 Fonticons, Inc. -->
  <path
     d="m 60,44 h -16.6875 l -5.65625,5.65625 c -1.50625,1.50625 -3.51875,2.34375 -5.65625,2.34375 -2.1375,0 -4.145,-0.832 -5.65625,-2.34375 l -5.65625,-5.65625 h -16.6875 c -2.20875,0 -4,1.79125 -4,4 v 12 c 0,2.20875 1.79125,4 4,4 h 56 c 2.20875,0 4,-1.79125 4,-4 v -12 c 0,-2.2125 -1.7875,-4 -4,-4 z m -6,13 c -1.65,0 -3,-1.35 -3,-3 0,-1.65 1.35,-3 3,-3 1.65,0 3,1.35 3,3 0,1.65 -1.35,3 -3,3 z m -24.825,-10.175 c 0.775,0.7875 1.8,1.175 2.825,1.175 1.025,0 2.0475,-0.390625 2.8275,-1.171875 l 16,-16 c 1.56125,-1.5625 1.56125,-4.09375 0,-5.65625 -1.5625,-1.5625 -4.095,-1.5625 -5.65625,0 l -9.17125,9.178125 v -30.35 c 0,-2.20875 -1.79125,-4 -4,-4 -2.2125,0 -4,1.79125 -4,4 v 30.35 l -9.175,-9.175 c -1.56125,-1.5625 -4.09375,-1.5625 -5.65625,0 -1.56125,1.5625 -1.56125,4.09375 0,5.65625 z"
     id="path2"
     style="stroke-width:0.125;fill:white;fill-opacity:1" />
</svg>
