<?xml version="1.0" encoding="UTF-8" standalone="no"?>
<svg
   xmlns:dc="http://purl.org/dc/elements/1.1/"
   xmlns:cc="http://creativecommons.org/ns#"
   xmlns:rdf="http://www.w3.org/1999/02/22-rdf-syntax-ns#"
   xmlns:svg="http://www.w3.org/2000/svg"
   xmlns="http://www.w3.org/2000/svg"
   xmlns:sodipodi="http://sodipodi.sourceforge.net/DTD/sodipodi-0.dtd"
   xmlns:inkscape="http://www.inkscape.org/namespaces/inkscape"
   width="133"
   height="109"
   fill="none"
   viewBox="0 0 133 109"
   version="1.1"
   id="svg34"
   sodipodi:docname="footerlogo.svg"
   inkscape:version="1.0.1 (3bc2e813f5, 2020-09-07)">
  <metadata
     id="metadata40">
    <rdf:RDF>
      <cc:Work
         rdf:about="">
        <dc:format>image/svg+xml</dc:format>
        <dc:type
           rdf:resource="http://purl.org/dc/dcmitype/StillImage" />
      </cc:Work>
    </rdf:RDF>
  </metadata>
  <defs
     id="defs38" />
  <sodipodi:namedview
     pagecolor="#ffffff"
     bordercolor="#666666"
     borderopacity="1"
     objecttolerance="10"
     gridtolerance="10"
     guidetolerance="10"
     inkscape:pageopacity="0"
     inkscape:pageshadow="2"
     inkscape:window-width="1920"
     inkscape:window-height="1009"
     id="namedview36"
     showgrid="false"
     showguides="true"
     inkscape:guide-bbox="true"
     inkscape:zoom="2.4424376"
     inkscape:cx="67.57241"
     inkscape:cy="63.027732"
     inkscape:window-x="-8"
     inkscape:window-y="-8"
     inkscape:window-maximized="1"
     inkscape:current-layer="svg34"
     inkscape:document-rotation="0" />
  <path
     fill="#fff"
     d="M56.234 25.346c-.097.227-.097.291-.13.389-.13.389-.291.81.162 1.07.422.259.778-.033 1.037-.325.519-.55 1.005-1.134 1.524-1.685.324-.324.648-.68 1.037-.908.421-.259.454-.486.162-.842-.13-.13-.227-.292-.389-.519-.324.357-.616.713-.907 1.037-.422.454-.843.94-1.362 1.33-.26.194-.81.323-.972.194a1.476 1.476 0 0 1-.519-1.07c-.032-.875.422-1.588 1.102-2.14-.13.325-.291.617-.324.94-.032.292.033.714.227.908.292.324.713.195.972-.097.584-.616 1.102-1.296 1.686-1.945.26-.324.55-.648.875-.875.648-.453 1.264-.324 1.782.26 1.88 2.074 4.182 2.625 6.84 1.652 1.263-.453 2.527-.972 3.791-1.49-.55-.746-1.426-.81-2.236-.94.292-.486.648-.681 1.102-.551 1.135.291 2.269.583 3.468.907-.389.648-.778 1.167-1.653 1.426-1.653.454-3.273 1.037-4.862 1.686-1.815.745-3.597.68-5.315-.227-.745-.39-1.297-.292-2.01.26.325.323.584.68.94.939 2.399 1.588 4.862 1.783 7.39.357.324-.195.648-.39.972-.552.616.908.616.908 1.783.098.454.518.94.389 1.362-.098.226.163.42.325.648.422.68.292 1.231-.13 1.102-.843-.065-.324-.195-.648-.324-.972-.39-.843-.422-.843.389-1.426.356.972.68 1.944.615 2.982-.064 1.296-.972 1.847-2.171 1.426a.808.808 0 0 0-.616.065c-.519.324-.94.42-1.264-.13-.454.194-.875.518-1.264.454-.39-.065-.713-.487-1.102-.81-2.593 1.782-5.348 1.847-8.07.291-.52.454-.973 1.037-1.556 1.232-.778.291-1.167-.422-1.556-1.167-.292.324-.519.616-.778.875-.357.357-.648.745-1.07 1.037-.68.454-1.458.033-1.523-.81.032-.778.357-1.297 1.005-1.815zm4.7.324v-.26c-.26-.161-.487-.453-.746-.486-.421-.064-.648.292-.616.713.033.39.292.681.68.584.228-.065.455-.357.681-.551zm1.07-3.5v-.26c-.228-.162-.455-.389-.714-.421-.356-.065-.616.227-.583.583 0 .357.259.649.615.584.26-.065.454-.324.681-.486zM66.67 8.621c-.583-.616-1.102-1.199-1.685-1.782-1.426-1.394-3.014-2.528-5.024-2.982-2.593-.584-4.764 1.07-4.926 3.727-.098 1.459.227 2.885.616 4.279.324 1.199.648 2.398.907 3.597.097.519.065 1.037-.032 1.588-.033-.097-.098-.227-.13-.324-.713-1.847-1.426-3.695-2.074-5.575-.325-.94-.713-1.912-.843-2.884-.519-3.857 2.366-6.418 6.158-5.543 2.172.487 3.89 1.75 5.38 3.306.551.584 1.07 1.167 1.653 1.815.454-.55.843-1.07 1.297-1.588 1.296-1.523 2.755-2.852 4.7-3.533 2.398-.842 4.7-.032 5.93 2.075.714 1.199.714 2.528.455 3.857a19.843 19.843 0 0 1-.94 2.982c-.422 1.134-1.005 2.171-1.426 3.306-.39 1.102-.649 2.236-.94 3.273-.195-.421-.26-1.264.065-2.333.453-1.621 1.037-3.177 1.49-4.797.292-1.038.551-2.107.616-3.177.13-2.593-1.815-4.246-4.408-3.922-1.912.227-3.435 1.2-4.764 2.496-.713.68-1.362 1.426-2.075 2.14z"
     id="path2"
     style="fill:#000000;fill-opacity:1" />
  <path
     fill="#fff"
     d="M67.092 16.368c-.39-.162-.778-.519-1.135-.454-.778.162-1.523.519-1.944 1.264-.195.357.097.584.388.616.454.065.908.032 1.362-.032 1.134-.227 2.139-.778 3.046-1.492.227-.194.422-.356.649-.55.648-.584 1.134-.681 1.653-.325.55.357.81 1.2.583 1.88-.907 2.658-4.343 4.635-7.098 4.052-1.232-.26-2.14-1.005-2.69-2.107-.227-.454-.422-.94-.68-1.556-.39.486-.746.843-1.038 1.264-.324.486-.519 1.005-.81 1.491-.195.324-.454.68-.746.908-.615.55-1.426.291-1.653-.519-.291-1.07.098-1.977.746-2.787-.098.389-.227.778-.292 1.167-.065.42-.065.875.389 1.102.486.226.81-.065 1.037-.454.26-.39.422-.81.68-1.2.422-.615.908-1.199 1.362-1.814.13-.195.26-.422.26-.649.032-.907.064-1.815 0-2.69-.065-.81.42-1.134 1.004-1.62v2.333c0 .68-.065 1.394.033 2.074.032.292.324.616.615.81.325.228.519-.096.746-.29.389-.357.81-.681 1.2-1.07.129-.13.323-.357.29-.487-.032-.13-.29-.291-.453-.356-.486-.13-.972-.195-1.426-.26-.227-1.296.227-1.88 1.458-2.009 2.237-.227 4.473.032 6.677.389l.39.097c-.098.551-.422.875-.94.973-.584.13-1.168.194-1.751.324-1.037.226-1.167.421-1.329 1.458-.032.26-.292.454-.454.68-.065 0-.097-.064-.13-.161zm-4.246 1.977c.194 1.167.875 1.88 1.977 2.139 2.14.519 4.505-.778 5.64-2.269.13-.194.259-.453.259-.68 0-.26-.065-.649-.26-.778-.226-.162-.615-.13-.907-.065-.292.065-.519.292-.778.486-.68.421-1.329.908-2.01 1.296-.94.552-1.944.584-2.981.227a5.56 5.56 0 0 0-.94-.356zm1.426-4.667c.875.356 1.588.68 2.301.972.097.032.227.097.324.065.713-.292 1.426-.616 2.237-.973-1.686-.648-3.21-.713-4.862-.064z"
     id="path4"
     style="fill:#000000;fill-opacity:1" />
  <path
     fill="#fff"
     d="M57.11 12.673c.194.324.356.648.55.972h.195c.064-.356.13-.745.13-1.102 0-.94-.098-1.88-.422-2.787-.227-.681-.227-1.426-.195-2.14.098-1.685 1.232-2.528 2.853-2.041.713.226 1.458.55 2.01 1.037 1.198 1.037 2.3 2.171 3.402 3.306.325.291.584.648.908 1.037.324-.39.55-.778.875-1.07 1.07-1.037 2.14-2.074 3.274-3.014.842-.68 1.88-1.102 3.046-.908 1.491.227 2.042 1.2 1.426 2.561-.324.713-.745 1.361-1.134 2.107.13.097.26.227.421.356.778.649.94 1.297.584 2.302-.357 1.004-.713 2.009-1.037 3.014-.162.518-.162 1.102-.227 1.685-.422-.55-.324-1.134-.227-1.685.097-.584.291-1.2.454-1.783.356-1.296.324-2.463-1.102-3.144.13-.194.259-.356.356-.518.195-.325.421-.649.584-.973.291-.713.518-1.49-.033-2.171-.55-.649-1.264-.454-1.977-.324-1.134.226-2.042.907-2.852 1.653-.843.745-1.588 1.588-2.399 2.463-.324-.324-.615-.616-.875-.908-1.329-1.361-2.658-2.69-4.375-3.565-.26-.13-.519-.26-.778-.324-.713-.227-1.297-.097-1.686.356-.389.487-.453 1.265-.065 1.913.163-.065.325-.162.487-.26 1.49-.842 2.139.163 2.107 1.297-.033.843-.292 1.685-.616 2.463-.292.778-.875.843-1.524.292-.227-.195-.421-.421-.778-.583l.098 1.264c.032.259.097.55.032.81-.065.227-.227.583-.357.583-.259 0-.68-.097-.745-.291-.26-.552-.389-1.167-.55-1.783.064-.065.096-.097.161-.097zm3.467-1.945c0-.616-.324-1.102-.713-1.07-.486.033-.583.422-.616.81-.032.552.324 1.07.68 1.038.52-.065.617-.421.65-.778zM65.439 2.917c-.097.551-.421 1.134.195 1.459.194.097.648-.292 1.037-.519 0-.032.032.065.097.162.292.357.616.519 1.037.26.421-.26.454-.649.227-1.038s-.357-.745.032-1.102c.973.875.81 2.56-.324 3.112-.194.097-.55.032-.778-.098-.291-.13-.486-.194-.778 0-.745.422-1.199.163-1.231-.713-.033-.583.065-1.102.486-1.523zM69.36 29.138c-.064-.357-.13-.583-.194-.875 1.102-.292 1.815-1.07 2.917-1.361.065.324.13.583.195.907-1.102.292-1.816 1.037-2.918 1.329z"
     id="path6"
     style="fill:#000000;fill-opacity:1" />
  <path
     fill="#fff"
     d="M69.134 10.988c.227-.195.454-.454.713-.584.583-.26 1.2-.486 1.815-.745.032.486-.097.745-.551.875-.616.194-1.232.421-1.815.616a.39.39 0 0 1-.162-.162zM73.736 28.004c.227-.26.421-.454.648-.713.26.226.487.42.746.68l-.648.746c-.26-.26-.487-.486-.746-.713zM67.027 1.847C66.444.843 66.444.777 67.222 0c-.065.583-.098 1.134-.195 1.847zM72.958 18.377c-.26.227-.421.39-.648.551-.195-.13-.389-.227-.616-.389.195-.227.324-.453.551-.745.26.194.454.357.713.583zM72.634 14.131c.195.227.325.422.519.649-.162.162-.324.356-.551.583-.162-.227-.292-.421-.486-.68.097-.066.26-.26.518-.552zM60.156 14.293c-.033.52-.097.973-.13 1.524-.454-.778-.421-1.232.13-1.524zM59.313 15.168c-.032.357-.097.649-.13.94-.291-.324-.518-.68.13-.94zM66.379 6.158c.194-.097.356-.227.616-.356.097.648-.097.713-.616.356zM85.858 65.795l-.778-.097c-1.07-.194-1.977-1.361-1.718-2.333.422-1.459.292-2.885 0-4.279-.13-.55-.064-.972.357-1.426 1.264-1.458 1.426-3.046.486-4.505-.843-1.329-2.139-2.042-3.662-2.43-1.394-.358-2.788-.13-4.181-.066-2.917.162-5.802.454-8.72.26-1.069-.065-1.944-.487-2.624-1.33-.454-.583-.52-1.296-.195-1.782.551-.843 2.43-1.134 3.241-.519.68.551 1.459.876 2.366 1.005 1.977.26 3.792-.55 5.802-.778-.162-.194-.227-.324-.324-.389-1.135-.68-2.269-1.393-3.468-1.944-1.232-.584-2.56-.681-3.89-.162a9.825 9.825 0 0 1-1.393.389c-1.102.259-2.172.583-3.047 1.36-1.49 1.362-1.394 3.372.227 4.506.324.227.713.421 1.102.584 1.912.745 3.922.875 5.931.745 1.912-.097 3.825-.292 5.737-.357a8.889 8.889 0 0 1 3.987.714c1.329.615 1.588 1.62.713 2.787-.162.227-.357.421-.519.648-1.231-.875-1.685-1.07-2.56-1.2-1.653-.29-3.306-.032-4.894.39-2.302.616-4.603.778-6.872-.065a427.754 427.754 0 0 1-5.834-2.204.392.392 0 0 1-.227-.227c-.454-1.523-.745-3.079-.421-4.635.356-1.75-.519-3.014-1.459-4.148-.648-.778-1.49-1.524-2.528-1.913-.194-.064-.389-.227-.518-.389-.454-.55-1.07-.648-1.718-.778-1.394-.226-2.69 0-3.792.81-1.135.876-2.27 1.783-3.015 3.08-.713 1.264-1.588 2.398-1.328 3.954.032.26-.033.584-.13.843-.26.616-.389 1.231-.13 1.88a.79.79 0 0 1 0 .389 6.36 6.36 0 0 0 .26 3.727c.227.583.162 1.134.162 1.75-.033.778-.098 1.62.13 2.301.291.843.615 1.62.42 2.529 0 .032.033.064.066.097.42-.098.648.162.842.486.324.55.648 1.07 1.005 1.62.292-.907.292-1.912 1.134-2.657-.13 1.88-.194 3.662-.356 5.412-.097 1.232-.81 1.816-2.042 1.816-.68 0-1.2.259-1.523.842-.422.68-.26 1.102.486 1.459.94.421 2.139.518 2.657 1.653.649.032 1.135.713 1.686.68.616 0 1.264-.097 1.912-.227.26-.064.551-.259.746-.486.356-.454.713-.94.94-1.458.356-.843.875-1.459 1.782-1.75 1.135-.39 2.075-1.135 2.788-2.107.194-.292.389-.324.713-.292.68.065 1.393.162 2.074.162 2.334.032 4.602-.389 6.839-1.037.227-.065.55-.13.68-.032a22.68 22.68 0 0 1 1.945 1.555c.39.357.39.746.032 1.135-.324.356-.712.648-1.037 1.004-.421.422-.907.454-1.426.26a5.005 5.005 0 0 1-.616-.26c-.615-.324-1.166-.194-1.685.227-.519.422-.875.973-.972 1.62-.098.52.032.746.55.94.066.033.163.066.195.13.227.487.68.357 1.07.487.648.194 1.264.064 1.88.162 1.36.162 2.398-.227 3.176-1.297.713-.94 1.653-1.49 2.787-1.815.325-.097.681-.227.973-.389.68-.421.713-1.005.13-1.556a5.635 5.635 0 0 0-.487-.42c-.875-.811-.875-1.848-.745-3.047.227.194.389.324.518.42.875.746 1.848 1.33 2.95 1.654.875.26 1.75.421 2.69.26.648-.098.843.064.875.745.032.291 0 .583 0 .907-.032 1.264-.097 1.329-1.297 1.07-.81-.162-1.426.227-1.555 1.037a4.246 4.246 0 0 0 0 .907c.032.422.13.81.713.746.13 0 .26.13.356.227.292.291.616.324 1.005.13.13-.065.357-.163.39-.098.453.551.971.551 1.555.324h.097c.81.324 1.361-.13 1.686-.745.324-.648.583-1.394.615-2.107.097-1.232.227-2.398 1.005-3.37.065-.098.13-.195.162-.292.324-.778-.065-1.362-.94-1.427zM69.101 46.932c.876-.227 1.718-.195 2.626.065-.68.81-2.172.778-2.626-.065zm-9.172 8.816h-.195c-.097-1.07-.194-2.172-.259-3.241-.032-.454.227-.68.746-.648.097 1.328.615 2.657-.292 3.889zm-.81-8.006c.778.357.972 1.102 1.07 1.848-.325.032-.584.097-.811.13-.421-.552-.908-1.135-1.394-1.718.26-.357.68-.487 1.135-.26zm-3.21 10.113c.195 1.49.39 2.917.584 4.472-.94-.615-1.231-3.532-.583-4.472zm-.356 6.32c-.259-.324-.518-.551-.615-.843-.584-1.523-.81-3.079-.422-4.667.097-.389.324-.713.713-.908.033.778.033 1.491.13 2.204.13.843.292 1.686.486 2.529.13.583 0 1.069-.292 1.685zm1.102-6.774c.584 1.07.584 2.139.357 3.306-.746-.908-.908-2.334-.357-3.306zm.454-1.361c.195.259.389.55.584.81-.13-1.491-.487-2.982.226-4.538a84.6 84.6 0 0 0 .292 2.107c.195 1.296.454 2.593.616 3.922.065.453-.097.907-.195 1.361-.032.162-.13.292-.259.551-.907-1.361-1.264-2.722-1.264-4.213zm1.588-.843c-.097-.648-.194-1.264-.259-1.912-.065-.713-.097-1.426-.162-2.14.032-.032.065-.064.13-.097.194.324.486.648.615 1.005.422 1.2.487 2.463.422 3.76-.454-.033-.713-.26-.746-.616zM50.53 43.01c.163-.097.26-.26.39-.421.064-.065.097-.162.194-.227 1.394-.713 2.885-.875 4.214.162.259.194.486.389.162.745.226.033.42.065.453.065.292.292.454.519.68.713.228.195.487.324.844.551-.486.551-.94 1.038-1.362 1.491-.259-.227-.421-.389-.583-.518-.032.032-.065.032-.097.065 0-.13-.033-.292-.033-.422-.194-.097-.648.097-.486-.324-.194-.065-.389-.097-.519-.194-.291-.195-.324-.454-.162-.81.163-.325.195-.681.292-1.006-.065-.032-.13-.032-.194-.064-.065.226-.162.486-.26.745-.162-.065-.324-.097-.486-.162-.194.389-.356.81-.583 1.297-.26-.487-.454-.876-.713-1.33v.876c-.195-.097-.324-.13-.486-.227v.421c-.195-.032-.325-.065-.519-.097.032.227.097.454.13.68-.26-.032-.486-.064-.746-.097.065.227.097.454.162.778-.778-.454-1.426-.81-2.171-1.264a8.218 8.218 0 0 1 1.88-1.426zm-2.203 2.204c.486-.097.81.162 1.004.648-.583.065-1.134.13-1.75.195 0-.551.324-.778.746-.843zm0 1.2c-.39.55-.973.972-.94 1.782.55-.194 1.004-.486 1.231-1.005.195-.454.551-.518.973-.486.259.032.518.097.777.162.973.324 1.718-.032 2.302-.81.13-.162.227-.324.356-.454.324.357.616.713.94 1.005.454.421.972.55 1.62.324.876-.357 1.556.097 1.556 1.07 0 .42.163.583.487.777.486.292.907.649 1.329 1.005.13.097.194.292.259.422-.033.032-.065.097-.13.13a16.084 16.084 0 0 1-.972-.617c-.13-.097-.26-.227-.39-.259-.485-.194-.777 0-.744.551 0 .616.13 1.296.032 1.88a25.954 25.954 0 0 1-.875 3.209c-.292.875-.94 1.555-1.686 2.042-.194.13-.583.226-.745.097-.162-.097-.227-.486-.195-.746.065-.68-.064-.94-.583-.94-.292 0-.486.13-.454.454 0 .26.033.519.033.81-.033.551-.292.714-.778.487a1.816 1.816 0 0 1-.486-.325c-1.232-.972-1.977-2.203-1.945-3.824 0-.713-.26-1.394-.357-2.107-.064-.421-.064-.875-.097-1.329-.032-.55-.032-1.07-.065-1.75-.713.616-1.167 1.394-2.106 1.264-.26-1.523.486-2.95 1.653-2.82zm5.542 14.39c-.778-.486-.843-1.459-.195-2.334.065.81.13 1.524.195 2.334zm-.778 1.588c-1.426-.421-2.14-2.139-1.394-3.5.13.356.26.68.39 1.07.194-.422.323-.746.453-1.038.032 0 .097.033.13.033.356 1.102.745 2.236.421 3.435zm-7-11.279c.032-.68.583-1.361 1.393-1.588-.227.421-.421.778-.648 1.134.032.033.065.065.065.13.324-.162.68-.324 1.037-.486-.13.648-.778 1.296-1.394 1.361-.357.032-.454-.227-.454-.551zm1.004 3.987c-.584-.81-.389-1.88.421-2.496.195.907.195 1.75-.421 2.496zm.454 5.12c-.065-.259-.098-.486-.195-.81-.194.26-.324.487-.486.713-.551-1.717.13-4.667 1.102-4.991.583 1.037.324 4.473-.421 5.089zm1.458 2.464c-.162-.097-.26-.162-.421-.26-.13.066-.26.13-.422.227-.291-.518-.324-1.037-.194-1.555.292-1.264.616-2.496.908-3.76.907.907 1.328 3.76.13 5.348zm.778-4.376c-.194-.421-.292-.907-.421-1.36.065-.033.13-.033.194-.066.519.39.908.908 1.07 1.491.26.778.421 1.62.616 2.399.064.227.097.486.259.68.486.68 1.005 1.362 1.523 2.042.26-.453.486-.94.778-1.458.94.972.94 2.95.195 3.662-.551-.68-1.07-1.393-1.621-2.042-.486-.583-1.297-.875-1.62-1.62-.098-.162-.195-.357-.195-.551 0-1.07-.324-2.14-.778-3.177zm1.88 7.812c-1.07-.26-1.62-2.042-.972-3.404.615.713 1.328 1.33 1.62 2.237.065.227-.13.55-.194.842-.065 0-.13.033-.227.033-.26-.39-.486-.778-.778-1.2-.13.616.356 1.005.551 1.492zm-3.727 5.672c-.033-.065-.033-.098-.065-.163-.26-.097-.486-.194-.81-.324.032-.13.13-.324.226-.583-.615-.421-.55.648-1.037.421-.13-.68.292-1.296 1.005-1.329h.162c1.848-.097 2.593-.875 2.625-2.754v-1.88h.13c.519.68 1.102 1.328 1.588 2.042.13.162.097.486.097.713-.064 1.49-.615 2.139-2.074 2.398-.648.097-1.102.389-1.394.972-.13.162-.324.324-.453.487zm27.97-2.593c.455.453.455.778-.096 1.102-.227.13-.487.227-.746.291-1.231.325-2.269.94-3.014 1.978-.584.81-1.459 1.166-2.463 1.134-.098-.227-.162-.39-.292-.648-.26.227-.422.453-.648.583-.098.065-.26.065-.39.065-.097 0-.161 0-.259.032 0-.065-.032-.162-.032-.227a.663.663 0 0 1 0-.356c.065-.292.194-.584.292-.875-.033-.033-.065-.065-.098-.065-.226.26-.453.486-.648.778-.194.291-.356.55-.81.55v-1.166c-.065-.032-.097-.097-.162-.13-.195.162-.421.325-.68.551 0-.745.29-1.264.777-1.718.421-.388.908-.453 1.426-.162.973.552 1.88.454 2.658-.388.227-.227.486-.422.68-.649.649-.68.616-1.361-.097-1.977-.518-.454-1.102-.875-1.718-1.361.227-.097.39-.162.551-.227 1.232-.519 2.496-1.005 3.728-1.49.162-.066.454-.098.519-.033.13.162.259.421.226.615-.162.81-.259 1.653.13 2.399.292.486.746.94 1.167 1.394zm10.275-1.62c-.68.874-.875 1.911-.94 2.98-.032.682-.259 1.33-.421 1.978-.032.194-.162.389-.292.519-.259.194-.518.421-.81.453-.097.033-.292-.421-.421-.615-.033-.033-.065-.065-.13-.227a2.82 2.82 0 0 1-.26.454c-.097.162-.226.291-.323.453-.162-.13-.422-.227-.519-.389-.13-.291-.13-.648-.227-1.102-.162.26-.26.357-.324.519-.097.162-.13.389-.26.519a.699.699 0 0 1-.55.162c-.097-.033-.162-.325-.195-.487 0-.227.065-.453.097-.68a.46.46 0 0 0-.194-.065c-.194.26-.421.55-.616.81h-.13c-.032-.356-.097-.713-.032-1.07.097-.68.519-.907 1.167-.745l.389.097c.713.195 1.231-.162 1.264-.907.032-.584.032-1.2 0-1.783-.032-.648-.454-1.037-1.135-.972-2.69.291-4.764-.81-6.482-2.82-.583-.68-1.231-1.296-1.847-1.945-.033.033-.097.065-.13.098.13.324.227.648.357.94l-.098.097c-.518-.26-1.07-.551-1.588-.81.26.42.486.81.713 1.231-.032.032-.097.065-.13.13-.518-.324-1.069-.616-1.62-.973.26.454.519.876.745 1.297-.94-.065-1.62-.584-2.398-1.167.357.584.616 1.037.875 1.491-.032.032-.065.065-.097.13-.616-.325-1.2-.616-1.88-.973.292.487.551.908.81 1.362-.032.032-.064.097-.097.13-.68-.39-1.394-.746-2.204-1.168.422.584.778 1.038 1.2 1.653-.81-.097-1.362-.421-1.945-.778.162.325.291.649.453 1.005-.032.033-.064.097-.13.13-.485-.324-1.004-.648-1.49-.972.13.356.26.713.421 1.199-.81-.065-1.231-.584-1.718-1.135.13.454.26.843.422 1.33-.843-.26-1.297-.811-1.783-1.524.097.519.162.875.227 1.264l-.097.097c-.357-.324-.713-.68-1.07-1.005.033.422.065.843.097 1.362-.713-.324-1.07-.778-1.264-1.556-.194.421-.389.713-.518 1.037-.519 1.459-1.556 2.463-2.95 3.014-1.231.454-2.01 1.232-2.398 2.431-.227.648-.68 1.102-1.297 1.394-.097.065-.324.097-.356.032-.065-.097-.065-.259-.097-.388 0-.227 0-.454-.033-.681-.162.194-.291.356-.454.55-.13.163-.162.422-.324.487-.194.13-.518.194-.713.13-.291-.098-.227-.422-.162-.681.065-.195.422-.421.033-.68-.195.226-.39.486-.584.648-.13.097-.389.227-.453.162-.13-.098-.227-.357-.195-.519.065-.26.26-.486.357-.745.064-.13.032-.26.032-.39-.13.033-.292.066-.357.13-.194.195-.389.422-.615.68-.098-.777.324-1.296 1.004-1.425.551-.13 1.102-.324 1.556-.584.648-.389.94-1.004.972-1.815.065-.81.26-1.653.422-2.463h.26c.096.389.161.778.29 1.2 1.038-.357 1.362-1.33 1.784-2.27.194.227.324.39.55.649.227-.584.422-1.102.616-1.588.162-.39.26-.843.713-1.038.098-.032.13-.227.195-.356.162-.422.291-.81.454-1.232.064 0 .097.033.162.033.097.259.194.55.356 1.004.097-.194.162-.324.227-.42.81-1.103 1.167-2.335 1.297-3.663.032-.39.064-.778.097-1.135 0-.13.032-.292.13-.356.777-.778 1.166-1.718 1.263-2.82 0-.033.033-.097.098-.195.713.26 1.426.519 2.139.81 1.07.422 2.139.876 3.209 1.265 2.366.875 4.764.94 7.195.291a19.3 19.3 0 0 1 3.047-.518c1.717-.195 3.273.13 4.57 1.426.68-.519 1.199-1.135 1.426-1.912.26-.843-.065-1.75-.973-2.172a9.442 9.442 0 0 0-2.495-.843c-2.01-.389-4.052-.194-6.061.033-2.237.26-4.44.356-6.645-.26-.648-.194-1.296-.453-1.847-.81-1.426-.875-1.588-2.528-.421-3.727.745-.778 1.717-1.102 2.722-1.361.648-.163 1.297-.325 1.912-.519.681-.227 1.394-.324 2.107-.195 1.264.227 3.241 1.135 4.181 2.01-1.004.583-2.204.357-2.3-.519-1.46-.259-2.95-.356-4.441-.162-.681.098-1.394.065-2.075.098-.162 0-.291.064-.421.097-1.783.518-2.204 2.042-.94 3.403.648.68 1.426 1.167 2.366 1.167 2.172.032 4.343 0 6.547-.033 1.718-.032 3.468-.194 5.186-.259 1.491-.065 2.852.454 3.987 1.426 1.653 1.394 1.847 3.274.453 4.927-.55.616-.648 1.167-.453 1.944.291 1.2.486 2.464.064 3.696-.162.42-.162.81-.032 1.199.357 1.231 1.232 1.912 2.528 2.042.324.032.746.097.908.324.291.227.065.648-.195.972z"
     id="path8"
     style="fill:#000000;fill-opacity:1" />
  <path
     fill="#fff"
     d="M83.265 70.722c.065-.13.098-.324.195-.421.13-.162.324-.26.486-.422.616-.648.68-1.231.227-2.042-.097-.162-.097-.356-.097-.55 1.264.907.907 2.56-.649 3.467-.032 0-.097 0-.162-.032zM72.7 70.722c.064-.13.096-.324.194-.421.13-.162.324-.26.486-.422.616-.648.68-1.231.227-2.042-.098-.162-.097-.356-.097-.55 1.263.907.907 2.56-.649 3.467-.065 0-.097 0-.162-.032zM53.512 53.641c-.13.195-.292.486-.487.843.454.032.81.065 1.232.097-.454.616-1.945.68-2.528.195.162-.227.745.064.648-.454-.065-.26-.291-.486-.421-.68h1.556zM50.53 48.91c.291.129.583.226.81.42.097.098.13.487.065.52-.357.161-.713.29-1.102.42-.292.098-.584.13-.94.227.778.94 1.653 1.102 2.69.551v1.2c.648-1.556-.195-3.241-1.523-3.339zm-.26 2.106c-.13-.065-.26-.194-.389-.26.097-.064.162-.161.324-.291.13.162.26.292.357.389-.097.032-.227.162-.292.162zM55.327 50.335c-.098-.032-.195-.032-.292-.065.13.162.227.26.292.39-.13.096-.227.226-.357.259-.097 0-.227-.13-.324-.195.097-.13.194-.26.324-.421-.324-.033-.648-.033-.94-.324-.26-.26-.357-.422-.032-.616.259-.162.518-.26.907-.454-1.458.097-2.398 2.14-1.653 3.403v-1.134c1.459.389 1.977.26 2.593-.616-.162-.097-.356-.162-.518-.227zM70.755 77.042a5.675 5.675 0 0 1 1.36 1.977c.325.778.487 1.621.487 2.56 0 .94-.162 1.816-.486 2.561a5.675 5.675 0 0 1-1.361 1.978 5.973 5.973 0 0 1-1.977 1.231c-.746.292-1.556.421-2.399.421-.907 0-1.75-.161-2.496-.453-.778-.324-1.426-.746-1.977-1.297-.55-.55-.972-1.199-1.296-1.977a6.345 6.345 0 0 1-.486-2.496c0-.972.162-1.815.486-2.592a5.99 5.99 0 0 1 1.361-1.977 5.877 5.877 0 0 1 2.01-1.265 6.677 6.677 0 0 1 2.398-.42 6.62 6.62 0 0 1 2.43.453c.714.324 1.395.745 1.946 1.296zm-1.362 8.395c.357-.519.584-1.07.746-1.718.162-.648.227-1.361.227-2.14 0-.81-.098-1.555-.26-2.235-.162-.681-.421-1.264-.777-1.75a3.193 3.193 0 0 0-1.265-1.103c-.518-.259-1.102-.389-1.75-.389-.745 0-1.361.162-1.88.454-.518.292-.94.713-1.264 1.232-.291.486-.518 1.07-.68 1.718-.162.648-.227 1.36-.227 2.074 0 .81.065 1.523.227 2.171.162.649.421 1.232.745 1.718a3.64 3.64 0 0 0 1.264 1.167c.486.292 1.102.422 1.815.422.648 0 1.232-.13 1.783-.422a3.81 3.81 0 0 0 1.296-1.2zM60.091 87.512h-5.413v-.584c.162 0 .357-.032.649-.064.291-.033.453-.065.583-.098.194-.065.324-.162.389-.291.097-.13.13-.325.13-.519v-4.213h-6.126v4.148c0 .195.032.357.097.486.065.13.194.26.421.357.098.065.292.097.551.162.26.065.486.065.616.097v.584h-5.413v-.584c.162 0 .357-.032.649-.065.291-.032.453-.064.583-.097.194-.065.324-.162.389-.291.097-.13.13-.325.13-.52v-8.556c0-.194-.033-.356-.13-.486-.065-.162-.227-.26-.421-.356a4.703 4.703 0 0 0-.616-.195 2.39 2.39 0 0 0-.616-.097v-.584h5.413v.584c-.162 0-.39.032-.616.065-.26.032-.421.097-.551.13-.195.064-.357.194-.421.323a1.344 1.344 0 0 0-.098.519v3.695h6.126v-3.598c0-.194-.032-.356-.13-.486-.064-.162-.226-.26-.42-.356a4.696 4.696 0 0 0-.617-.195 2.39 2.39 0 0 0-.615-.097v-.584h5.412v.584c-.162 0-.389.032-.616.065-.259.032-.42.097-.55.13-.195.064-.357.194-.422.323a1.342 1.342 0 0 0-.097.519v8.557c0 .194.032.356.097.486s.194.26.421.356c.098.065.292.098.551.162.26.065.487.065.616.098v.486h.065z"
     id="path10"
     style="fill:#000000;fill-opacity:1" />
  <path
     fill="#fff"
     d="M86.053 87.511H80.64v-.583c.162 0 .356-.033.648-.065.292-.033.454-.065.584-.097.194-.065.324-.163.388-.292.098-.13.13-.324.13-.519v-4.213h-6.126v4.148c0 .195.033.357.098.487.064.13.194.259.42.356.098.065.293.097.552.162.26.065.486.065.616.098v.583h-5.413v-.583c.162 0 .356-.033.648-.065.292-.033.454-.065.584-.098.194-.064.324-.162.389-.291.097-.13.13-.324.13-.519v-8.556c0-.195-.033-.357-.13-.487-.065-.162-.227-.259-.422-.356a4.694 4.694 0 0 0-.616-.195 2.395 2.395 0 0 0-.615-.097v-.583h5.412v.583c-.162 0-.389.033-.615.065-.26.032-.422.097-.552.13-.194.064-.356.194-.42.324a1.344 1.344 0 0 0-.098.518v3.695h6.158v-3.598c0-.194-.032-.356-.13-.486-.064-.162-.226-.259-.42-.356a4.694 4.694 0 0 0-.617-.195 2.395 2.395 0 0 0-.615-.097v-.583h5.412v.583c-.162 0-.389.033-.616.065-.259.032-.421.097-.55.13-.195.064-.357.194-.422.324a1.344 1.344 0 0 0-.097.518v8.557c0 .194.032.356.097.486s.194.26.421.357c.098.064.292.097.551.162.26.065.487.065.616.097v.486h.033zM46.575 35.912l.551 1.718h1.783l-1.426 1.037.551 1.718-1.459-1.07-1.458 1.07.551-1.718-1.426-1.037h1.783l.55-1.718zM56.46 35.912l.552 1.718h1.783l-1.459 1.037.551 1.718-1.426-1.07-1.459 1.07.551-1.718-1.458-1.037h1.815l.55-1.718zM66.314 35.912l.551 1.718h1.815l-1.458 1.037.55 1.718-1.458-1.07-1.426 1.07.55-1.718-1.458-1.037h1.783l.551-1.718zM76.2 35.912l.55 1.718h1.783l-1.426 1.037.551 1.718-1.459-1.07-1.458 1.07.551-1.718-1.426-1.037h1.782l.552-1.718zM86.085 35.912l.551 1.718h1.783l-1.459 1.037.551 1.718-1.426-1.07-1.458 1.07.55-1.718-1.458-1.037h1.815l.551-1.718z"
     id="path12"
     style="fill:#000000;fill-opacity:1" />
  <path
     fill="#ffffff"
     d="m 88.516,32.93 c 3.5,0 6.32,2.82 6.32,6.32 v 44.534 c 0,3.5 -2.82,6.32 -6.32,6.32 h -44.47 c -3.5,0 -6.32,-2.82 -6.32,-6.32 v -44.534 c 0,-3.5 2.82,-6.32 6.32,-6.32 z m 0,-2.657 h -44.47 a 8.977,8.977 0 0 0 -8.977,8.978 v 44.533 a 8.977,8.977 0 0 0 8.978,8.978 h 44.469 a 8.977,8.977 0 0 0 8.977,-8.978 v -44.534 c 0.033,-4.959 -4.019,-8.977 -8.977,-8.977 z m -79.863,70.073 h -8.394 a 0.221,0.221 0 0 1 -0.227,-0.227 v -5.51 c 0,-1.75 1.977,-3.144 4.408,-3.144 2.43,0 4.408,1.426 4.408,3.144 v 5.51 c 0.032,0.13 -0.065,0.227 -0.195,0.227 z m -8.166,-0.421 h 7.94 v -5.283 c 0,-1.491 -1.782,-2.723 -3.986,-2.723 -2.204,0 -3.955,1.232 -3.955,2.723 v 5.283 z m 16.561,-3.403 c 0,0 -0.032,0 0,0 -3.727,-0.357 -3.727,-3.145 -3.727,-3.177 0,-0.13 0.097,-0.227 0.227,-0.227 0.13,0 0.226,0.098 0.226,0.227 0,0.097 0.033,2.399 3.306,2.723 0.13,0 0.227,0.13 0.195,0.227 -0.033,0.13 -0.13,0.227 -0.227,0.227 z"
     id="path14"
     style="fill:#000000;fill-opacity:1" />
  <path
     fill="#fff"
     d="M4.732 92.891c-2.787 0-2.82 1.816-2.82 1.848v4.505c0 .13.098.227.227.227h2.593c.13 0 .227-.097.227-.227v-6.126a.222.222 0 0 0-.227-.227z"
     id="path16"
     style="fill:#000000;fill-opacity:1" />
  <path
     fill="#fff"
     d="M8.686 103.198H2.172a.221.221 0 0 1-.227-.226v-8.006c0-.097.065-.195.162-.227s.194.032.259.097c1.07 1.977 3.403 1.75 3.436 1.718h.032c2.172 0 2.658-1.977 2.658-1.977.032-.097.13-.195.227-.162.097 0 .194.097.194.227v8.362c0 .097-.097.194-.227.194zm-6.32-.421h6.093v-7.13c-.42.648-1.231 1.36-2.625 1.36-.194.033-2.171.163-3.436-1.36v7.13h-.032z"
     id="path18"
     style="fill:#000000;fill-opacity:1" />
  <path
     fill="#fff"
     d="M17.146 96.1a.252.252 0 0 0-.26.065c-1.329 1.685-2.398 1.685-2.43 1.685H2.852s-1.07.033-2.43-1.685a.252.252 0 0 0-.26-.065c-.097.033-.162.13-.162.195v10.922C0 107.25.097 109 2.398 109h12.479c2.301 0 2.366-1.75 2.398-1.783V96.295c.033-.098-.032-.162-.13-.195zM123.974 100.152v-5.51c0-1.75 1.977-3.144 4.408-3.144s4.408 1.426 4.408 3.144v5.51a.222.222 0 0 1-.227.227h-8.362c-.13-.033-.227-.13-.227-.227zm8.395-5.51c0-1.491-1.783-2.723-3.987-2.723s-3.986 1.232-3.986 2.723v5.283h7.94v-5.283h.033z"
     id="path20"
     style="fill:#000000;fill-opacity:1" />
  <path
     fill="#fff"
     d="M15.396 102.712l-1.945-1.134c-.065-.033-.097-.098-.097-.195v-8.038-.032c0-.033.097-.843.875-1.653.68-.713 2.074-1.588 4.797-1.588h.616c5.25 0 5.64 3.208 5.64 3.24v8.071c0 .065-.033.162-.098.195l-1.945 1.134c-.097.065-.194.033-.26-.032 0 0-.94-.908-3.337-.908h-.616c-2.399 0-3.339.908-3.339.908a.25.25 0 0 1-.162.065c-.065 0-.097 0-.13-.033zm9.431-9.334c-.032-.195-.518-2.853-5.218-2.853h-.616c-4.732 0-5.186 2.626-5.218 2.853v7.908l1.685 1.005c.357-.26 1.394-.94 3.5-.94h.617c2.106 0 3.176.648 3.5.94l1.685-1.005v-7.908h.065zM109.681 102.712l-1.945-1.134c-.065-.032-.097-.097-.097-.195v-8.038-.032c0-.032.097-.843.875-1.653.681-.713 2.074-1.588 4.797-1.588h.616c5.25 0 5.639 3.209 5.639 3.241v8.07c0 .065-.032.163-.097.195l-1.945 1.134c-.097.065-.194.033-.259-.032 0 0-.94-.908-3.338-.908h-.616c-2.399 0-3.339.908-3.339.908a.248.248 0 0 1-.162.065c-.064 0-.097 0-.129-.033zm9.399-9.334c-.032-.195-.519-2.852-5.218-2.852h-.616c-4.732 0-5.186 2.625-5.218 2.852v7.908l1.685 1.005c.357-.259 1.394-.94 3.501-.94h.615c2.107 0 3.177.648 3.501.94l1.685-1.005v-7.908h.065z"
     id="path22"
     style="fill:#000000;fill-opacity:1" />
  <path
     fill="#fff"
     d="M115.807 96.522c3.727-.357 3.727-3.145 3.727-3.177a.221.221 0 0 0-.227-.227.221.221 0 0 0-.227.227c0 .097-.032 2.399-3.306 2.723-.13 0-.227.13-.194.227.032.13.129.227.227.227zM111.334 96.521c.097 0 .194-.097.227-.194 0-.13-.065-.227-.195-.227-1.394-.13-2.366-.648-2.917-1.491-.389-.616-.389-1.232-.389-1.232a.221.221 0 0 0-.227-.227.222.222 0 0 0-.227.227s.033 2.788 3.728 3.144zM128.155 92.891c2.788 0 2.82 1.816 2.82 1.848v4.505c0 .13-.097.227-.227.227h-2.593a.222.222 0 0 1-.227-.227v-6.126c0-.13.098-.227.227-.227z"
     id="path24"
     style="fill:#000000;fill-opacity:1" />
  <path
     fill="#fff"
     d="M123.974 103.004v-8.362c0-.097.097-.195.195-.227.097 0 .227.065.227.162 0 .032.486 1.977 2.657 1.977h.033c.032 0 2.366.26 3.435-1.718.033-.097.162-.13.26-.097.097.032.162.097.162.227v8.038c0 .13-.098.227-.227.227h-6.515c-.13-.033-.227-.13-.227-.227zm6.547-7.325c-1.264 1.523-3.241 1.361-3.435 1.361-1.426 0-2.204-.745-2.626-1.361v7.13h6.094v-7.13h-.033z"
     id="path26"
     style="fill:#000000;fill-opacity:1" />
  <path
     fill="#fff"
     d="M115.742 96.1a.252.252 0 0 1 .259.065c1.329 1.685 2.399 1.685 2.431 1.685h11.603s1.07.033 2.431-1.685a.252.252 0 0 1 .259-.065c.098.033.163.13.163.195v10.922c0 .033-.098 1.783-2.399 1.783h-12.478c-2.302 0-2.366-1.75-2.399-1.783V96.295c-.032-.098.033-.162.13-.195zM58.73 103.458c-.033-.195-.033-.357-.098-.486a.641.641 0 0 0-.194-.357c-.097-.065-.195-.13-.324-.13-.227 0-.39.13-.519.389-.13.26-.194.649-.194 1.2l1.329-.033a1.76 1.76 0 0 0 0-.583zM90.201 103.426c-.064-.163-.162-.325-.291-.422a.704.704 0 0 0-.454-.162c-.162 0-.324.033-.421.097-.098.065-.227.162-.292.292v2.82c.032.065.032.162.097.259.032.097.097.195.13.259.065.098.13.163.227.195a.82.82 0 0 0 .324.065c.291 0 .518-.195.68-.551.163-.357.26-.875.26-1.524 0-.259 0-.486-.033-.713-.097-.227-.162-.453-.227-.615zM83.654 104.884a1.016 1.016 0 0 0-.26.357 1.078 1.078 0 0 0-.096.486c0 .259.064.421.162.551.097.129.227.162.356.162a.698.698 0 0 0 .39-.097.996.996 0 0 0 .258-.26l.033-1.653c-.162.065-.324.13-.454.227-.162.065-.292.13-.389.227zM43.431 103.134a1.213 1.213 0 0 0-.291-.486c-.13-.13-.26-.163-.454-.163a.659.659 0 0 0-.486.195c-.13.13-.195.292-.26.486a3.28 3.28 0 0 0-.13.648c-.032.26-.032.519-.032.778 0 .357 0 .648.033.875.032.227.065.454.13.713.064.195.162.357.291.487.13.129.26.162.454.162a.617.617 0 0 0 .421-.162c.13-.098.227-.26.292-.487.065-.194.097-.389.13-.648.032-.259.032-.551.032-.907 0-.227 0-.487-.032-.778 0-.292-.065-.519-.098-.713z"
     id="path28"
     style="fill:#000000;fill-opacity:1" />
  <path
     fill="#fff"
     d="M111.399 96.1a.253.253 0 0 0-.26.065c-1.329 1.685-2.398 1.685-2.431 1.685H24.114s-1.07 0-2.43-1.685a.252.252 0 0 0-.26-.065c-.097.033-.162.13-.162.195v10.922c0 .033.097 1.783 2.398 1.783h85.47c2.301 0 2.366-1.75 2.398-1.783V96.295c.033-.098-.032-.162-.129-.195zm-18.345 3.695a.812.812 0 0 1 .583-.26c.227 0 .421.098.583.26.162.162.227.389.227.616a.885.885 0 0 1-.259.616.812.812 0 0 1-.583.259.811.811 0 0 1-.584-.259.885.885 0 0 1-.26-.616c0-.227.13-.421.293-.616zm-53.382.746c-.097 0-.195.032-.292.032-.097.032-.227.032-.292.065-.097.032-.162.097-.227.194-.032.098-.064.195-.064.292v4.894c0 .13.032.227.065.292.032.097.097.162.226.194.065.033.162.065.292.098.13.032.227.032.324.032v.389h-3.209v-.389c.065 0 .163-.032.292-.032.13 0 .227-.033.292-.065a.44.44 0 0 0 .227-.195.772.772 0 0 0 .065-.291v-2.334h-2.529v2.334c0 .097.033.194.065.291a.295.295 0 0 0 .195.195c.065.032.13.065.259.097.13.032.227.032.324.065v.389h-3.209v-.389c.065 0 .162 0 .325-.033.13-.032.226-.032.291-.064a.295.295 0 0 0 .195-.195c.032-.097.065-.194.065-.292v-4.894c0-.097-.033-.194-.065-.291-.033-.065-.098-.13-.227-.195-.065-.032-.195-.065-.324-.13-.13-.032-.227-.064-.292-.064v-.389h3.209v.389c-.097 0-.195.032-.324.032-.13.032-.227.065-.292.065-.097.032-.195.097-.227.194-.032.098-.065.195-.065.292v2.074h2.528v-2.009a.948.948 0 0 0-.065-.292c-.032-.065-.097-.13-.226-.194a1.5 1.5 0 0 0-.292-.098c-.13-.032-.227-.064-.292-.064v-.389h3.209v.389h.065zm5.283 5.088c-.097.324-.26.584-.486.81a2.602 2.602 0 0 1-.778.551c-.292.13-.649.195-1.037.195a2.86 2.86 0 0 1-.94-.162 1.726 1.726 0 0 1-.746-.519 2.322 2.322 0 0 1-.518-.81 2.857 2.857 0 0 1-.195-1.07c0-.388.065-.745.162-1.037a2.09 2.09 0 0 1 .486-.81c.195-.227.454-.389.778-.519a2.536 2.536 0 0 1 1.005-.194c.389 0 .745.065 1.037.194.292.13.551.292.778.519.195.227.357.486.486.81.097.324.162.649.162 1.005a4.543 4.543 0 0 1-.194 1.037zm6.158 1.329l-2.01.13-.064-.065v-.648h-.033l-.291.291a1.26 1.26 0 0 1-.325.26c-.13.097-.291.162-.389.194-.13.033-.324.065-.55.065-.422 0-.746-.162-.973-.454-.227-.292-.324-.713-.324-1.264v-2.171c0-.13-.032-.227-.065-.325a.981.981 0 0 0-.162-.226c-.065-.033-.13-.098-.227-.098-.097-.032-.162-.032-.227-.032v-.357l2.01-.129.032.065v3.241c0 .324.065.583.162.745.098.162.26.227.454.227a.738.738 0 0 0 .519-.194c.162-.13.259-.26.356-.389v-2.626c0-.097-.032-.194-.065-.291-.032-.098-.097-.162-.162-.227a.462.462 0 0 0-.227-.065c-.097 0-.194-.032-.291-.032v-.357l2.042-.13.065.065v3.76c0 .097.032.194.064.292.033.064.098.162.162.194.065.032.13.065.195.065.097 0 .162.032.26.032v.454h.064zm3.695-.162c-.357.292-.843.421-1.394.421-.259 0-.55-.032-.778-.129a3.768 3.768 0 0 1-.615-.292l-.13.324h-.324l-.065-1.815h.292c.032.13.097.324.194.486.097.195.195.357.324.486.13.13.292.26.454.357.162.097.357.162.551.162.26 0 .454-.065.583-.162.13-.13.195-.292.195-.519a.548.548 0 0 0-.097-.324.764.764 0 0 0-.227-.227 1.236 1.236 0 0 0-.357-.162c-.13-.032-.291-.097-.486-.162a3.78 3.78 0 0 1-.486-.194 1.23 1.23 0 0 1-.421-.324 1.365 1.365 0 0 1-.292-.454 1.821 1.821 0 0 1-.097-.648c0-.454.162-.811.486-1.102.324-.292.778-.422 1.296-.422.26 0 .486.033.713.098.227.064.39.129.551.194l.098-.292h.324l.064 1.653h-.324a2.037 2.037 0 0 0-.518-.875.977.977 0 0 0-.778-.356.826.826 0 0 0-.519.162.522.522 0 0 0-.194.421c0 .259.097.421.26.519.194.097.42.227.745.324.486.162.875.356 1.102.616.226.259.356.583.356.972.065.551-.13.972-.486 1.264zm5.218-.389c-.13.162-.292.292-.486.421-.194.13-.389.227-.583.292a2.084 2.084 0 0 1-.649.097c-.421 0-.777-.064-1.07-.194a2.196 2.196 0 0 1-1.2-1.361 3.425 3.425 0 0 1-.128-1.005c0-.324.065-.648.162-.94.097-.292.26-.583.454-.81a2 2 0 0 1 .713-.551c.292-.13.616-.227.972-.227.39 0 .713.065.973.162.259.097.453.259.615.454.162.194.26.389.357.648.097.259.097.518.097.778v.324h-2.82c0 .648.098 1.167.324 1.523.227.357.584.519 1.038.519.259 0 .486-.098.713-.26.194-.162.389-.389.55-.648l.325.259c-.13.195-.227.357-.357.519zm7.682-.778a1.87 1.87 0 0 1-.486.81 2.602 2.602 0 0 1-.778.551c-.292.13-.648.195-1.038.195a2.86 2.86 0 0 1-.94-.162 1.726 1.726 0 0 1-.745-.519 2.322 2.322 0 0 1-.518-.81 2.857 2.857 0 0 1-.195-1.07c0-.388.065-.745.162-1.037.097-.291.26-.583.486-.81.195-.227.454-.389.778-.519a2.536 2.536 0 0 1 1.005-.194c.389 0 .745.065 1.037.194.292.13.551.292.778.519.194.227.356.486.486.81.097.324.162.649.162 1.005a4.543 4.543 0 0 1-.194 1.037zm4.635-4.991c-.033.097-.065.194-.098.259-.065.097-.13.13-.194.195a.822.822 0 0 1-.324.064.63.63 0 0 1-.519-.259c-.13-.162-.26-.486-.389-.875-.097.065-.194.194-.259.421-.065.227-.097.713-.097 1.491v.389h1.166v.519h-1.231v3.338c0 .13.032.227.065.292.065.065.13.13.194.162a.617.617 0 0 0 .26.065c.097.032.194.032.291.065v.356h-2.82v-.356c.065 0 .13 0 .227-.033.065 0 .13-.032.195-.032a.333.333 0 0 0 .194-.162c.033-.065.033-.162.033-.292v-3.403h-.843v-.519h.843a3.425 3.425 0 0 1 .518-1.88c.162-.259.422-.453.68-.615.293-.163.617-.227 1.006-.227.356 0 .615.064.81.227.194.162.292.356.292.583.032.032 0 .13 0 .227zm8.913-.097c-.097 0-.195.032-.292.032-.097.032-.227.032-.292.065-.097.032-.162.097-.227.194-.032.098-.064.195-.064.292v4.894c0 .13.032.227.064.292.033.097.098.162.227.194.065.033.162.065.292.098.13.032.227.032.324.032v.389H78.08v-.389c.065 0 .163-.032.292-.032.13 0 .227-.033.292-.065a.44.44 0 0 0 .227-.195.772.772 0 0 0 .065-.291v-2.334h-2.528v2.334c0 .097.032.194.064.291a.295.295 0 0 0 .195.195c.065.032.13.065.259.097.13.032.227.032.324.065v.389H74.06v-.389c.065 0 .162 0 .325-.033.13-.032.226-.032.291-.064a.295.295 0 0 0 .195-.195c.032-.097.065-.194.065-.292v-4.894c0-.097-.033-.194-.065-.291-.033-.065-.097-.13-.227-.195-.065-.032-.195-.065-.324-.13-.13-.032-.227-.064-.292-.064v-.389h3.209v.389c-.097 0-.195.032-.324.032-.13.032-.227.065-.292.065-.097.032-.194.097-.227.194-.032.098-.065.195-.065.292v2.074h2.528v-2.009a.948.948 0 0 0-.064-.292c-.033-.065-.098-.13-.227-.194a1.497 1.497 0 0 0-.292-.098c-.13-.032-.227-.064-.292-.064v-.389h3.209v.389h.065zm5.315 6.417c-.13.065-.259.13-.421.162-.162.065-.357.065-.519.065-.356 0-.583-.065-.745-.162a.956.956 0 0 1-.324-.519h-.033c-.097.098-.194.195-.259.292l-.292.194c-.13.065-.259.13-.389.163-.13.032-.291.064-.518.064-.324 0-.616-.097-.843-.324a1.196 1.196 0 0 1-.356-.875c0-.227.032-.389.064-.551.065-.162.13-.292.227-.389a2.12 2.12 0 0 1 .292-.259c.097-.065.227-.13.356-.195.26-.097.551-.226.908-.324.357-.129.616-.227.778-.324v-.454c0-.064 0-.194-.032-.324a.816.816 0 0 0-.065-.324.505.505 0 0 0-.195-.259.546.546 0 0 0-.324-.097.945.945 0 0 0-.324.065c-.097.032-.162.097-.195.129 0 .065.033.162.065.292.033.13.065.259.065.389 0 .065 0 .129-.032.194a.53.53 0 0 1-.097.195.585.585 0 0 1-.227.162.873.873 0 0 1-.357.065c-.227 0-.421-.065-.519-.195-.13-.129-.194-.292-.194-.518 0-.195.065-.357.194-.487.13-.129.292-.259.454-.356.162-.097.39-.162.616-.227.227-.065.454-.065.648-.065.26 0 .519.033.746.065.227.032.421.13.616.227.162.097.324.292.421.486.097.227.162.486.162.843 0 .356 0 .81-.032 1.296-.033.486-.033.843-.033 1.005 0 .13.033.259.065.356a.33.33 0 0 0 .162.195c.033.032.13.032.227.032h.292v.292h-.033zm4.7-.454c-.421.486-.94.713-1.588.713-.26 0-.454-.032-.648-.064a1.891 1.891 0 0 1-.454-.163 2.713 2.713 0 0 1-.324-.194c-.065-.065-.13-.097-.195-.162l-.583.616-.26-.097c0-.227.033-.487.033-.778v-5.672c0-.13-.032-.227-.065-.357-.032-.097-.097-.194-.162-.227-.065-.032-.13-.065-.227-.097s-.194-.032-.291-.065v-.356l2.074-.13.065.065v3.144h.032c.195-.227.421-.389.616-.519.227-.097.421-.162.648-.162.584 0 1.037.227 1.394.681.324.454.518 1.102.518 1.88.033.842-.162 1.458-.583 1.944zm3.825.551h-2.658v-.356c.065 0 .13 0 .227-.033.064 0 .13-.032.194-.032a.33.33 0 0 0 .195-.162.648.648 0 0 0 .064-.292v-2.82a.772.772 0 0 0-.064-.291.332.332 0 0 0-.163-.195c-.064-.032-.13-.065-.226-.097-.098-.032-.195-.065-.292-.065v-.356l2.042-.13.065.065v3.857c0 .097.032.194.064.291.033.065.098.13.195.163.065.032.13.064.194.064.065.033.13.033.195.033v.356h-.032zm4.764-.551c-.421.486-.94.713-1.588.713-.26 0-.454-.032-.648-.064a1.892 1.892 0 0 1-.454-.163c-.13-.064-.227-.129-.324-.194-.065-.065-.13-.097-.195-.162l-.583.616-.26-.097c0-.227.033-.487.033-.778v-5.672c0-.13-.032-.227-.065-.357-.032-.097-.097-.194-.162-.227-.065-.032-.13-.065-.227-.097s-.194-.032-.291-.065v-.356l2.074-.13.065.065v3.144h.032c.195-.227.421-.389.616-.519.227-.097.421-.162.648-.162.584 0 1.037.227 1.394.681.324.454.518 1.102.518 1.88.033.842-.162 1.458-.583 1.944z"
     id="path30"
     style="fill:#000000;fill-opacity:1" />
  <path
     fill="#fff"
     d="M66.152 103.134a1.21 1.21 0 0 0-.292-.486c-.13-.13-.259-.163-.454-.163a.659.659 0 0 0-.486.195c-.13.13-.194.292-.259.486a3.28 3.28 0 0 0-.13.648c-.032.26-.032.519-.032.778 0 .357 0 .648.032.875.033.227.065.454.13.713.065.195.162.357.292.487.13.129.259.162.453.162a.617.617 0 0 0 .422-.162c.13-.098.227-.26.291-.487.065-.194.098-.389.13-.648.033-.259.033-.551.033-.907 0-.227 0-.487-.033-.778 0-.292-.032-.519-.097-.713zM98.758 103.425c-.065-.162-.162-.324-.292-.421a.704.704 0 0 0-.453-.162c-.163 0-.325.032-.422.097-.097.065-.227.162-.292.292v2.82c.033.064.033.162.098.259.032.097.097.194.13.259a.44.44 0 0 0 .226.195.82.82 0 0 0 .324.065c.292 0 .519-.195.68-.551.163-.357.26-.876.26-1.524 0-.259 0-.486-.032-.713-.097-.227-.162-.454-.227-.616zM21.521 96.521c-.097 0-.194-.097-.227-.194 0-.13.065-.227.195-.227 1.393-.13 2.366-.648 2.917-1.491.389-.616.389-1.232.389-1.232 0-.13.097-.227.227-.227s.227.098.227.227c0 0 0 2.788-3.728 3.144.033 0 .033 0 0 0z"
     id="path32"
     style="fill:#000000;fill-opacity:1" />
</svg>
