<?xml version="1.0" encoding="UTF-8" standalone="no"?>
<svg
   xmlns:dc="http://purl.org/dc/elements/1.1/"
   xmlns:cc="http://creativecommons.org/ns#"
   xmlns:rdf="http://www.w3.org/1999/02/22-rdf-syntax-ns#"
   xmlns:svg="http://www.w3.org/2000/svg"
   xmlns="http://www.w3.org/2000/svg"
   xmlns:sodipodi="http://sodipodi.sourceforge.net/DTD/sodipodi-0.dtd"
   xmlns:inkscape="http://www.inkscape.org/namespaces/inkscape"
   viewBox="0 0 32 32"
   version="1.1"
   id="svg4"
   sodipodi:docname="linkedin-brands.svg"
   width="32"
   height="32"
   inkscape:version="1.0.1 (3bc2e813f5, 2020-09-07)">
  <metadata
     id="metadata8">
    <rdf:RDF>
      <cc:Work
         rdf:about="">
        <dc:format>image/svg+xml</dc:format>
        <dc:type
           rdf:resource="http://purl.org/dc/dcmitype/StillImage" />
        <dc:title></dc:title>
      </cc:Work>
    </rdf:RDF>
  </metadata>
  <defs
     id="defs6" />
  <sodipodi:namedview
     pagecolor="#ffffff"
     bordercolor="#666666"
     borderopacity="1"
     objecttolerance="10"
     gridtolerance="10"
     guidetolerance="10"
     inkscape:pageopacity="0"
     inkscape:pageshadow="2"
     inkscape:window-width="867"
     inkscape:window-height="480"
     id="namedview4"
     showgrid="false"
     scale-x="1"
     inkscape:zoom="7.7880795"
     inkscape:cx="16"
     inkscape:cy="16"
     inkscape:window-x="0"
     inkscape:window-y="0"
     inkscape:window-maximized="0"
     inkscape:current-layer="svg4" />
  <path
     d="m 28,2 h -24.0062499 c -1.1000001,0 -1.9937501,0.9062501 -1.9937501,2.0187496 v 23.9624994 c 0,1.112501 0.89375,2.018751 1.9937501,2.018751 h 24.0062499 c 1.099999,0 2,-0.90625 2,-2.018751 v -23.9624994 c 0,-1.1124995 -0.900001,-2.0187496 -2,-2.0187496 z m -17.537499,24.000001 h -4.1500008 v -13.362502 h 4.1562508 v 13.362502 z m -2.0750007,-15.187501 c -1.3312501,0 -2.4062501,-1.0812506 -2.4062501,-2.4062502 0,-1.3249996 1.075,-2.4062499 2.4062501,-2.4062499 1.3250003,0 2.4062497,1.0812503 2.4062497,2.4062499 0,1.3312495 -1.0749994,2.4062502 -2.4062497,2.4062502 z m 17.6312497,15.187501 h -4.149999 v -6.500001 c 0,-1.55 -0.03125,-3.543749 -2.156251,-3.543749 -2.162501,0 -2.493752,1.6875 -2.493752,3.431249 v 6.612501 h -4.149999 v -13.362502 h 3.98125 v 1.825001 h 0.05625 c 0.55625,-1.05 1.9125,-2.156251 3.93125,-2.156251 4.2,0 4.98125,2.768751 4.98125,6.368751 z"
     id="path2"
     style="stroke-width:0.0624999" />
</svg>
