<?xml version="1.0" encoding="UTF-8" standalone="no"?>
<svg
   xmlns:dc="http://purl.org/dc/elements/1.1/"
   xmlns:cc="http://creativecommons.org/ns#"
   xmlns:rdf="http://www.w3.org/1999/02/22-rdf-syntax-ns#"
   xmlns:svg="http://www.w3.org/2000/svg"
   xmlns="http://www.w3.org/2000/svg"
   xmlns:sodipodi="http://sodipodi.sourceforge.net/DTD/sodipodi-0.dtd"
   xmlns:inkscape="http://www.inkscape.org/namespaces/inkscape"
   viewBox="0 0 640 512"
   version="1.1"
   id="svg2029"
   sodipodi:docname="shirt-solid-light.svg"
   inkscape:version="1.0.1 (3bc2e813f5, 2020-09-07)">
  <metadata
     id="metadata2035">
    <rdf:RDF>
      <cc:Work
         rdf:about="">
        <dc:format>image/svg+xml</dc:format>
        <dc:type
           rdf:resource="http://purl.org/dc/dcmitype/StillImage" />
        <dc:title></dc:title>
      </cc:Work>
    </rdf:RDF>
  </metadata>
  <defs
     id="defs2033" />
  <sodipodi:namedview
     pagecolor="#ffffff"
     bordercolor="#666666"
     borderopacity="1"
     objecttolerance="10"
     gridtolerance="10"
     guidetolerance="10"
     inkscape:pageopacity="0"
     inkscape:pageshadow="2"
     inkscape:window-width="1920"
     inkscape:window-height="1009"
     id="namedview2031"
     showgrid="false"
     inkscape:zoom="1.4707031"
     inkscape:cx="320"
     inkscape:cy="256"
     inkscape:window-x="-8"
     inkscape:window-y="-8"
     inkscape:window-maximized="1"
     inkscape:current-layer="svg2029" />
  <!--! Font Awesome Pro 6.0.0 by @fontawesome - https://fontawesome.com License - https://fontawesome.com/license (Commercial License) Copyright 2022 Fonticons, Inc. -->
  <path
     d="M640 162.8c0 6.917-2.293 13.88-7.012 19.7l-49.96 61.63c-6.32 7.796-15.62 11.85-25.01 11.85c-7.01 0-14.07-2.262-19.97-6.919L480 203.3V464c0 26.51-21.49 48-48 48H208C181.5 512 160 490.5 160 464V203.3L101.1 249.1C96.05 253.7 88.99 255.1 81.98 255.1c-9.388 0-18.69-4.057-25.01-11.85L7.012 182.5C2.292 176.7-.0003 169.7-.0003 162.8c0-9.262 4.111-18.44 12.01-24.68l135-106.6C159.8 21.49 175.7 16 191.1 16H225.6C233.3 61.36 272.5 96 320 96s86.73-34.64 94.39-80h33.6c16.35 0 32.22 5.49 44.99 15.57l135 106.6C635.9 144.4 640 153.6 640 162.8z"
     id="path2027"
     style="fill:#ffffff;fill-opacity:1" />
</svg>
