<?xml version="1.0" encoding="UTF-8" standalone="no"?>
<svg
   xmlns:dc="http://purl.org/dc/elements/1.1/"
   xmlns:cc="http://creativecommons.org/ns#"
   xmlns:rdf="http://www.w3.org/1999/02/22-rdf-syntax-ns#"
   xmlns:svg="http://www.w3.org/2000/svg"
   xmlns="http://www.w3.org/2000/svg"
   xmlns:sodipodi="http://sodipodi.sourceforge.net/DTD/sodipodi-0.dtd"
   xmlns:inkscape="http://www.inkscape.org/namespaces/inkscape"
   width="256"
   height="128"
   viewBox="0 0 256 128"
   version="1.1"
   id="svg8"
   inkscape:version="1.0.1 (3bc2e813f5, 2020-09-07)"
   sodipodi:docname="avt-logo-blue.svg">
  <defs
     id="defs2" />
  <sodipodi:namedview
     id="base"
     pagecolor="#ffffff"
     bordercolor="#666666"
     borderopacity="1.0"
     inkscape:pageopacity="0.0"
     inkscape:pageshadow="2"
     inkscape:zoom="2.8"
     inkscape:cx="96.568052"
     inkscape:cy="111.98999"
     inkscape:document-units="px"
     inkscape:current-layer="layer1"
     inkscape:document-rotation="0"
     showgrid="false"
     units="px"
     inkscape:window-width="1920"
     inkscape:window-height="1009"
     inkscape:window-x="-8"
     inkscape:window-y="-8"
     inkscape:window-maximized="1" />
  <metadata
     id="metadata5">
    <rdf:RDF>
      <cc:Work
         rdf:about="">
        <dc:format>image/svg+xml</dc:format>
        <dc:type
           rdf:resource="http://purl.org/dc/dcmitype/StillImage" />
        <dc:title></dc:title>
      </cc:Work>
    </rdf:RDF>
  </metadata>
  <g
     inkscape:label="Layer 1"
     inkscape:groupmode="layer"
     id="layer1">
    <path
       id="path847"
       style="fill:#1e2557;fill-opacity:1;stroke:none;stroke-width:1.06886px;stroke-linecap:butt;stroke-linejoin:miter;stroke-opacity:1"
       d="m 194.61395,18.710445 c -14.21121,-0.243903 -22.66865,7.975711 -28.24971,20.423207 l -22.90331,46.188646 c -6.83175,14.145523 -13.33535,11.571389 -19.65913,-0.18998 l -34.738048,-54.971267 c -12.224503,-15.721979 -30.894207,-14.22241 -39.892374,-1.144017 l -48.6708253,79.592696 h 17.7510533 l 42.562441,-69.286104 c 5.631562,-9.745016 10.204728,-7.498241 14.314826,0 l 37.410207,58.023375 c 12.78629,18.189829 33.90645,13.772099 42.37246,-0.954044 l 25.95958,-53.061097 c 4.0062,-6.428869 9.48,-9.674488 16.03294,-10.498653 l 25.9575,-0.189973 22.3313,0.189973 10.30659,-14.122762 z m 3.05209,27.293572 -6.87036,7.826495 25.57546,0.379948 c 3.81652,-0.285595 4.27067,2.231824 5.15434,4.390269 l 0.18997,50.009001 h 7.06244 v -53.443139 c -0.6721,-4.344007 -2.19194,-8.150532 -8.39851,-8.972602 z m -130.361575,17.941029 c -6.539928,1.026387 -12.189181,4.147914 -15.46093,9.73458 -6.744015,11.515723 -20.231147,34.930104 -20.231147,34.930104 h 8.778451 l 17.561079,-30.349867 c 4.057658,-5.196585 4.976814,-6.059093 12.978747,-6.106294 h 20.613182 l -7.062426,-8.016469 z" />
  </g>
</svg>
